<svg width="136" height="22" viewBox="0 0 136 22" fill="none" xmlns="http://www.w3.org/2000/svg">
<path fill-rule="evenodd" clip-rule="evenodd" d="M9.99536 16.1268C9.15156 16.1269 8.32165 15.9148 7.58157 15.51C6.84149 15.1051 6.21527 14.5208 5.76097 13.8106C5.30666 13.1003 5.03887 12.2868 4.9821 11.4458C4.92532 10.6049 5.08131 9.76388 5.43603 8.99912C5.79076 8.23435 6.33262 7.57047 7.01158 7.07001C7.69055 6.56956 8.48503 6.24815 9.3212 6.13511C10.1574 6.02208 11.0083 6.12191 11.796 6.4241C12.5837 6.7263 13.2827 7.22164 13.8282 7.86473L16.8778 3.77253C15.5409 2.53454 13.8922 1.68313 12.108 1.30966C10.3237 0.936196 8.47124 1.05484 6.74926 1.65256C5.02728 2.25029 3.50087 3.30492 2.33297 4.70311C1.16508 6.10131 0.399674 7.78964 0.119431 9.58895C-0.160811 11.3883 0.0543178 13.2304 0.741771 14.9169C1.42922 16.6034 2.56307 18.0713 4.02187 19.1633C5.48067 20.2553 7.20977 20.9305 9.02326 21.1161C10.8367 21.3018 12.6664 20.9906 14.3167 20.2168L11.1288 15.9974C10.7573 16.0831 10.3767 16.1267 9.99536 16.1268Z" fill="#8EBF17"/>
<path fill-rule="evenodd" clip-rule="evenodd" d="M32.9039 2.53291C30.7337 1.22084 28.1483 0.773036 25.6626 1.27884C23.1768 1.78464 20.9728 3.20768 19.4894 5.26321V5.2535L13.6309 13.8973L16.8365 18.6375L18.8185 15.9137C19.6647 17.4704 20.9105 18.7741 22.4278 19.691C24.7056 21.0792 27.4424 21.5067 30.0357 20.8793C32.629 20.252 34.8662 18.6214 36.2558 16.3461C37.6455 14.0708 38.0735 11.3377 37.4455 8.74724C36.8174 6.15682 35.185 3.92103 32.9072 2.53291H32.9039ZM27.7083 16.1283C26.7122 16.1283 25.7384 15.8324 24.9102 15.2797C24.0819 14.7269 23.4367 13.942 23.0555 13.0228C22.6744 12.1035 22.5746 11.0915 22.7689 10.1156C22.9633 9.13976 23.4426 8.24308 24.1469 7.53953C24.8513 6.83597 25.7489 6.35771 26.7259 6.1636C27.7028 5.96949 28.7155 6.06859 29.6357 6.44935C30.556 6.83011 31.3423 7.4746 31.8957 8.30189C32.4491 9.12919 32.7447 10.1019 32.7447 11.0969C32.7438 12.4307 32.2126 13.7104 31.2679 14.6532C30.3233 15.5959 29.0425 16.1254 27.7072 16.1251L27.7083 16.1283Z" fill="#192638"/>
<path d="M49.9673 14.9883C49.1869 15.3804 48.3239 15.5789 47.4504 15.5684C46.8596 15.6033 46.2681 15.5171 45.7124 15.3139C45.1566 15.1108 44.6481 14.7951 44.2194 14.3877C43.7907 13.9802 43.4505 13.4892 43.2198 12.9449C42.989 12.4006 42.8727 11.815 42.8781 11.2239C42.8777 10.6208 42.9999 10.0239 43.2376 9.46948C43.4752 8.91501 43.8232 8.41464 44.2604 7.99866C44.6977 7.58268 45.2149 7.25986 45.7809 7.04974C46.3469 6.83963 46.9499 6.74607 47.5529 6.77585C48.3433 6.7729 49.1235 6.95491 49.8313 7.30638V8.89474C49.1315 8.4415 48.3183 8.19418 47.4844 8.17982C47.0805 8.16628 46.6782 8.23542 46.3023 8.38362C45.9264 8.53182 45.5852 8.75596 45.2995 9.04139C45.0137 9.32682 44.7893 9.66767 44.641 10.0431C44.4926 10.4186 44.4234 10.8205 44.4369 11.2239C44.4302 11.6249 44.5068 12.0229 44.662 12.3928C44.8172 12.7627 45.0474 13.0965 45.3383 13.373C45.6292 13.6494 45.9744 13.8631 46.352 13.9995C46.7296 14.1359 47.1313 14.1922 47.5319 14.1655C48.4117 14.1724 49.2685 13.8832 49.964 13.3449L49.9673 14.9883Z" fill="#8EBF17"/>
<path d="M52.1885 6.96355H53.736V8.19606L53.7705 8.21439C54.0511 7.81074 54.4246 7.47963 54.8597 7.25038C55.2949 7.02113 55.7787 6.90005 56.2707 6.89669C56.4571 6.89503 56.643 6.91753 56.8234 6.96463V8.4872C56.6271 8.44042 56.426 8.41796 56.2242 8.41927C55.7129 8.41271 55.2103 8.54889 54.7718 8.81178C54.3333 9.07466 53.9766 9.45349 53.7419 9.90734V15.3809H52.1939L52.1885 6.96355Z" fill="#8EBF17"/>
<path d="M59.2285 11.6161C59.309 12.3658 59.6802 13.0548 60.2627 13.5344C60.8451 14.0141 61.5924 14.2466 62.3445 14.1825C63.4037 14.1646 64.427 13.7985 65.256 13.1398V14.781C64.3383 15.3055 63.2976 15.5771 62.2403 15.5681C61.6458 15.6045 61.0503 15.5175 60.4915 15.3115C59.9327 15.1055 59.4231 14.7857 58.9948 14.3723C58.5665 13.9588 58.2291 13.4609 58.0038 12.9101C57.7785 12.3593 57.6704 11.7677 57.6864 11.1729C57.6593 10.6058 57.7474 10.0389 57.946 9.50693C58.1446 8.97493 58.4493 8.48913 58.8415 8.07816C59.2337 7.66719 59.7056 7.33989 60.2281 7.11631C60.7506 6.89272 61.313 6.77674 61.8814 6.77664C62.4088 6.76561 62.9328 6.866 63.4192 7.06994C63.9056 7.27388 64.3433 7.5769 64.7049 7.96063C65.0664 8.34436 65.3434 8.80039 65.5178 9.29773C65.6921 9.79508 65.7599 10.3232 65.7169 10.8483C65.719 11.1069 65.7018 11.3655 65.6651 11.6215L59.2285 11.6161ZM59.2625 10.4019H64.2283C64.2235 10.0974 64.1575 9.79644 64.0345 9.51771C63.9115 9.23898 63.7339 8.98803 63.512 8.77907C63.2901 8.5701 63.0286 8.40764 62.7429 8.30137C62.4571 8.1951 62.1526 8.14694 61.8479 8.16011C61.2164 8.15202 60.604 8.37611 60.1272 8.78985C59.6504 9.20359 59.3428 9.77833 59.2625 10.4041V10.4019Z" fill="#8EBF17"/>
<path d="M71.8332 6.77578C72.5312 6.77559 73.2205 6.92562 73.8546 7.21681L73.8881 7.19956V2.30725H75.4302V15.3753H73.8881V14.861L73.8546 14.8437C73.2223 15.2729 72.484 15.5194 71.7204 15.5565C70.9569 15.5935 70.1978 15.4199 69.5269 15.054C68.8559 14.6881 68.299 14.1445 67.9173 13.4829C67.5356 12.8213 67.344 12.067 67.3635 11.3036C67.3374 10.7075 67.4351 10.1126 67.6496 9.55568C67.8641 8.99874 68.1909 8.49148 68.6104 8.06652C69.0298 7.64157 69.5327 7.30745 70.0871 7.08526C70.6416 6.86307 71.2361 6.75821 71.8332 6.77578ZM71.6961 14.2011C72.4829 14.1889 73.2472 13.9378 73.8881 13.4818V8.67577C73.2477 8.34201 72.5387 8.1601 71.8165 8.14524C71.4188 8.1401 71.0242 8.21837 70.6582 8.37384C70.2921 8.52931 69.9626 8.75918 69.6904 9.04887C69.4182 9.33856 69.2094 9.68128 69.0772 10.056C68.945 10.4307 68.8921 10.8287 68.9223 11.2249C68.8895 11.6069 68.9374 11.9925 69.0627 12.355C69.1879 12.7174 69.3881 13.0493 69.6499 13.3298C69.9117 13.6102 70.2294 13.832 70.5826 13.9822C70.9358 14.1323 71.3166 14.2071 71.7005 14.2011H71.6961Z" fill="#8EBF17"/>
<path d="M78.9051 2.99531C79.1188 2.99487 79.3279 3.05819 79.5058 3.17646C79.6837 3.29474 79.8221 3.46246 79.9041 3.65955C79.9862 3.85663 80.0082 4.07448 79.9668 4.28389C79.9253 4.4933 79.8225 4.68489 79.6715 4.83599C79.5206 4.98708 79.3284 5.09072 79.1188 5.13252C78.9092 5.17433 78.6918 5.15265 78.4943 5.07106C78.2968 4.98947 78.1284 4.85169 78.0096 4.67424C77.8908 4.49679 77.8272 4.28816 77.8272 4.0747C77.8264 3.93301 77.8537 3.79277 77.9076 3.6617C77.9615 3.53063 78.0411 3.41047 78.1413 3.31017C78.2415 3.20988 78.3605 3.13134 78.4916 3.07726C78.6227 3.02317 78.7632 2.99487 78.9051 2.99531ZM78.131 6.96566H79.6721V15.3797H78.131V6.96566Z" fill="#8EBF17"/>
<path d="M83.0355 12.4564V8.35339H81.4756V6.96775H83.0344V4.67526L84.5754 4.42078V6.96883H87.109V8.35339H84.5705V12.1674C84.5705 13.2097 84.7242 14.1687 85.8374 14.1687C86.284 14.162 86.7209 14.0387 87.1042 13.8097V15.2632C86.6233 15.4715 86.104 15.5768 85.5799 15.5716C85.2223 15.5888 84.8651 15.5274 84.5338 15.3915C84.2026 15.2557 83.9056 15.0488 83.6632 14.7855C83.1692 14.1153 82.9453 13.2838 83.0355 12.4564Z" fill="#8EBF17"/>
<path d="M93.0886 19.1443H90.4854V6.96581H93.0379V7.3939L93.0724 7.41115C93.6878 6.99215 94.4165 6.77109 95.1613 6.77818C95.7122 6.78654 96.256 6.90704 96.7589 7.13187C97.2619 7.3567 97.7134 7.68136 98.0867 8.08617C98.4601 8.49099 98.7473 8.9678 98.9304 9.4869C99.1135 10.006 99.189 10.5563 99.1522 11.1055C99.1796 11.6932 99.0848 12.2802 98.8742 12.8297C98.6637 13.3792 98.3418 13.8801 97.9286 14.2994C97.5154 14.7187 97.0196 15.0478 96.4729 15.2667C95.9261 15.4856 95.3404 15.5889 94.7516 15.5708C94.1914 15.5837 93.6351 15.4725 93.1231 15.2451L93.0902 15.2634L93.0886 19.1443ZM94.424 13.4648C94.7134 13.4745 95.0018 13.4227 95.2698 13.3128C95.5377 13.2029 95.7794 13.0366 95.9785 12.8264C96.1775 12.6163 96.3297 12.3665 96.4248 12.0932C96.5199 11.8199 96.5558 11.5295 96.5301 11.2413C96.5599 10.9545 96.5295 10.665 96.441 10.3905C96.3526 10.116 96.208 9.86318 96.0162 9.64757C95.8245 9.43196 95.59 9.25767 95.3275 9.13753C95.065 9.01739 94.7801 8.95419 94.4914 8.9499C93.9867 8.9533 93.4956 9.11469 93.0875 9.41142V13.1402C93.5022 13.3522 93.9619 13.4627 94.4277 13.4626L94.424 13.4648Z" fill="#192638"/>
<path d="M100.831 6.96598H103.382V8.0939L103.416 8.11115C103.686 7.71338 104.052 7.39031 104.48 7.17194C104.909 6.95358 105.385 6.84717 105.866 6.86247C106.052 6.86066 106.238 6.88459 106.419 6.93256V9.37709C106.189 9.32163 105.953 9.29327 105.717 9.29299C105.286 9.27204 104.856 9.35028 104.461 9.52267C104.066 9.69506 103.716 9.95628 103.439 10.2861V15.3833H100.835L100.831 6.96598Z" fill="#192638"/>
<path d="M109 2.80768C109.294 2.81095 109.58 2.901 109.823 3.06647C110.066 3.23195 110.254 3.465 110.365 3.73718C110.475 4.00937 110.502 4.30792 110.443 4.59552C110.384 4.88312 110.241 5.14702 110.032 5.35358C109.823 5.56013 109.557 5.70064 109.269 5.75687C108.98 5.81309 108.682 5.78248 108.41 5.66952C108.139 5.55656 107.907 5.366 107.744 5.12174C107.58 4.87748 107.493 4.59046 107.493 4.29683C107.497 3.90036 107.658 3.52223 107.94 3.24332C108.222 2.96441 108.603 2.80766 109 2.80768ZM107.698 6.96566H110.301V15.3797H107.698V6.96566Z" fill="#192638"/>
<path d="M123.35 10.5219C123.378 10.3201 123.365 10.1147 123.312 9.91809C123.258 9.72145 123.166 9.53743 123.041 9.37677C122.927 9.25724 122.788 9.1635 122.635 9.1018C122.481 9.0401 122.316 9.01161 122.151 9.01877C121.533 9.05085 120.946 9.29839 120.493 9.7186C120.507 9.84362 120.512 9.96919 120.51 10.0949V15.3808H117.908V10.523C117.957 10.1159 117.846 9.70543 117.599 9.37785C117.484 9.25823 117.346 9.16458 117.192 9.10288C117.039 9.04118 116.874 9.0126 116.708 9.01985C116.1 9.05789 115.521 9.29869 115.065 9.7035V15.3819H112.462V6.96674H115.031V7.72048L115.066 7.73773C115.769 7.12617 116.668 6.78599 117.6 6.77911C118.076 6.75606 118.551 6.8543 118.979 7.06379C119.407 7.27328 119.775 7.58716 120.049 7.97712C120.85 7.21916 121.908 6.79132 123.011 6.77911C123.411 6.76335 123.811 6.83016 124.185 6.97429C124.559 7.11841 124.9 7.33765 125.186 7.61804C125.476 7.95744 125.694 8.35197 125.827 8.77831C125.96 9.20464 126.005 9.6529 125.959 10.0971V15.383H123.357L123.35 10.5219Z" fill="#192638"/>
<path d="M130.219 11.8582C130.357 12.3865 130.679 12.848 131.128 13.1586C131.578 13.4693 132.124 13.6087 132.667 13.5511C133.69 13.5284 134.685 13.2065 135.527 12.627V14.7998C134.544 15.3304 133.439 15.5958 132.321 15.5719C129.547 15.5719 127.544 13.8458 127.544 11.2112C127.532 10.6271 127.638 10.0464 127.855 9.50424C128.073 8.96202 128.398 8.46873 128.811 8.05498C129.224 7.64123 129.716 7.31555 130.258 7.09636C130.8 6.87717 131.381 6.76895 131.966 6.77934C132.514 6.75999 133.06 6.85685 133.569 7.06293C134.077 7.26902 134.536 7.57963 134.916 7.97519C135.296 8.37074 135.588 8.84264 135.773 9.35866C135.957 9.87469 136.032 10.4232 135.99 10.9697C135.992 11.2675 135.974 11.5658 135.938 11.8614L130.219 11.8582ZM133.594 10.2159C133.547 9.81156 133.351 9.43964 133.045 9.17104C132.738 8.90243 132.343 8.7558 131.936 8.76128C131.522 8.75858 131.12 8.90449 130.803 9.17104C130.486 9.43758 130.274 9.8077 130.207 10.2159H133.594Z" fill="#192638"/>
</svg>
